<svg width="74" height="74" viewBox="0 0 74 74" fill="none" xmlns="http://www.w3.org/2000/svg">
<circle cx="37" cy="37" r="37" fill="#D9B07B"/>
<path d="M55.2292 19.194C49.3418 19.194 43.713 17.3553 38.9517 13.8775L37.9532 13.1483C37.6829 12.9506 37.3175 12.9506 37.0468 13.1483L36.0479 13.8775C31.287 17.3553 25.6586 19.194 19.7708 19.194C19.3455 19.194 19 19.5406 19 19.9681V34.6327C19 45.3023 25.193 55.1709 34.7769 59.776L37.1673 60.924C37.2727 60.9751 37.3867 61 37.5 61C37.6133 61 37.7273 60.9751 37.8331 60.924L40.2235 59.776C49.8074 55.1717 56 45.3031 56 34.6327V19.9681C56 19.5406 55.6549 19.194 55.2292 19.194ZM54.4583 34.6327C54.4583 44.7103 48.6101 54.0304 39.5573 58.3784L37.5 59.3677L35.4427 58.3792C26.3899 54.0304 20.5417 44.7103 20.5417 34.6327V20.7321C26.4772 20.5779 32.1365 18.6496 36.9542 15.1295L37.5 14.7314L38.045 15.1295C42.8635 18.6496 48.5231 20.5786 54.4583 20.7321V34.6327Z" fill="white"/>
<path d="M30.5651 33.1291V37H29.7943C29.369 37 29.0235 37.3467 29.0235 37.7742V48.6128C29.0235 49.0408 29.369 49.387 29.7943 49.387H45.211C45.6367 49.387 45.9819 49.0408 45.9819 48.6128V37.7742C45.9819 37.3467 45.6367 37 45.211 37H44.4402V33.1291C44.4402 29.2872 41.3275 26.1614 37.5027 26.1614C33.6778 26.1614 30.5651 29.2872 30.5651 33.1291ZM30.5651 47.8386V43.9677H33.6485V42.4193H30.5651V38.5484H44.4402V42.4193H41.3568V43.9677H44.4402V47.8386H30.5651ZM39.8152 37H35.1901V33.1291C35.1901 31.8483 36.2278 30.8065 37.5027 30.8065C38.7778 30.8065 39.8152 31.8483 39.8152 33.1291V37ZM42.8985 33.1291V37H41.3568V33.1291C41.3568 30.9944 39.6281 29.2581 37.5027 29.2581C35.3776 29.2581 33.6485 30.9944 33.6485 33.1291V37H32.1068V33.1291C32.1068 30.1404 34.5273 27.7098 37.5027 27.7098C40.4784 27.7098 42.8985 30.1404 42.8985 33.1291Z" fill="white"/>
<path d="M37.501 40.8713C36.2262 40.8713 35.1885 41.9132 35.1885 43.1939C35.1885 44.4743 36.2262 45.5165 37.501 45.5165C38.7762 45.5165 39.8135 44.4743 39.8135 43.1939C39.8135 41.9132 38.7762 40.8713 37.501 40.8713ZM37.501 43.9681C37.0764 43.9681 36.7302 43.6211 36.7302 43.1939C36.7302 42.7664 37.0764 42.4197 37.501 42.4197C37.9259 42.4197 38.2718 42.7664 38.2718 43.1939C38.2718 43.6211 37.9259 43.9681 37.501 43.9681Z" fill="white"/>
<path d="M36.7299 20.7419H38.2716V22.2903H36.7299V20.7419Z" fill="white"/>
<path d="M39.814 20.7419H41.3557V22.2903H39.814V20.7419Z" fill="white"/>
<path d="M42.8943 20.7419H44.436V22.2903H42.8943V20.7419Z" fill="white"/>
<path d="M33.6459 20.7419H35.1876V22.2903H33.6459V20.7419Z" fill="white"/>
<path d="M30.5618 20.7419H32.1035V22.2903H30.5618V20.7419Z" fill="white"/>
</svg>
