<svg width="44" height="50" viewBox="0 0 44 50" fill="none" xmlns="http://www.w3.org/2000/svg">
<path d="M42.352 8.61152L26.8678 0.34589C25.399 -0.43844 23.3793 0.16489 22.5837 1.61288L13.5257 18.2045H2.5093C1.10164 18.2045 0 19.2905 0 20.6781V25.0221V47.5263C0 48.914 1.10164 50 2.5093 50H37.7007C39.1083 50 40.21 48.914 40.21 47.5263V41.2517H41.2504C41.8012 41.2517 42.2296 40.8294 42.2296 40.2864V33.1067C42.2296 32.5637 41.8012 32.1414 41.2504 32.1414H40.21V25.0824C40.21 23.9361 39.3531 22.9105 38.2515 22.6691L43.6373 12.8348C44.4329 11.3265 43.8821 9.45618 42.352 8.61152ZM31.3356 4.9312L21.6656 22.6088H18.9115L29.2547 3.84521L31.3356 4.9312ZM24.3585 2.51788C24.6646 1.97488 25.399 1.73355 25.9498 2.03522L27.4799 2.87988L16.7082 22.6088H13.3421L24.3585 2.51788ZM1.89727 20.6178C1.89727 20.4368 2.14208 20.1351 2.44809 20.1351H12.4241L11.0776 22.5485H2.44809C2.26449 22.5485 2.08088 22.5485 1.89727 22.6088V20.6178ZM38.1903 47.5263C38.1903 47.828 37.9455 48.0693 37.6395 48.0693H2.44809C2.14208 48.0693 1.89727 47.828 1.89727 47.5263V25.0824C1.89727 24.7808 2.14208 24.5394 2.44809 24.5394H11.6897H15.6066H22.7673H36.5378H37.5783C37.8843 24.5394 38.1291 24.7808 38.1291 25.0824V32.1414H34.3957C32.7433 32.1414 31.458 33.4687 31.458 35.0374V38.3557C31.458 39.9847 32.8045 41.2517 34.3957 41.2517H38.1903V47.5263ZM40.1488 34.0721H40.21V39.321H40.1488H34.3957C33.8449 39.321 33.4165 38.8987 33.4165 38.3557V35.0374C33.4165 34.4944 33.8449 34.0721 34.3957 34.0721H40.1488ZM41.8624 11.8695L35.987 22.6088H23.8689L33.0493 5.89653L41.3728 10.3612C41.9848 10.6025 42.1684 11.3265 41.8624 11.8695Z" fill="white"/>
<path d="M38.1282 10.9645L37.6386 10.7231C36.4145 10.0595 34.7621 10.5422 34.0888 11.7487L33.4768 12.895C33.1708 13.4983 33.0484 14.2223 33.2932 14.8859C33.4768 15.5495 33.9664 16.0925 34.5784 16.3941L35.0681 16.6354C35.4353 16.8164 35.8637 16.9371 36.2921 16.9371C37.2714 16.9371 38.1282 16.3941 38.6178 15.6098L39.2298 14.4636C39.8419 13.1967 39.3522 11.6281 38.1282 10.9645ZM37.455 13.5586L36.8429 14.7049C36.6593 15.0065 36.2309 15.1272 35.9249 14.9462L35.4353 14.6446C35.3129 14.5842 35.1905 14.4032 35.1293 14.2826C35.0681 14.1016 35.0681 13.9206 35.1905 13.8L35.8025 12.6537C35.9249 12.4727 36.1697 12.2917 36.4145 12.2917C36.5369 12.2917 36.5981 12.2917 36.7205 12.352L37.2102 12.5934C37.455 12.8347 37.5774 13.1967 37.455 13.5586Z" fill="white"/>
</svg>
