<svg width="37" height="48" viewBox="0 0 37 48" fill="none" xmlns="http://www.w3.org/2000/svg">
<path d="M36.2292 6.19396C30.3418 6.19396 24.713 4.35527 19.9517 0.87748L18.9532 0.148279C18.6829 -0.0494262 18.3175 -0.0494262 18.0468 0.148279L17.0479 0.87748C12.287 4.35527 6.6586 6.19396 0.770833 6.19396C0.34552 6.19396 0 6.54061 0 6.96815V21.6327C0 32.3023 6.19301 42.1709 15.7769 46.776L18.1673 47.924C18.2727 47.9751 18.3867 48 18.5 48C18.6133 48 18.7273 47.9751 18.8331 47.924L21.2235 46.776C30.8074 42.1717 37 32.3031 37 21.6327V6.96815C37 6.54061 36.6549 6.19396 36.2292 6.19396ZM35.4583 21.6327C35.4583 31.7103 29.6101 41.0304 20.5573 45.3784L18.5 46.3677L16.4427 45.3792C7.38991 41.0304 1.54167 31.7103 1.54167 21.6327V7.73213C7.47723 7.57789 13.1365 5.64961 17.9542 2.12948L18.5 1.73143L19.045 2.12948C23.8635 5.64961 29.5231 7.57865 35.4583 7.73213V21.6327Z" fill="white"/>
<path d="M11.5651 20.1291V24H10.7943C10.369 24 10.0235 24.3467 10.0235 24.7742V35.6128C10.0235 36.0408 10.369 36.387 10.7943 36.387H26.211C26.6367 36.387 26.9819 36.0408 26.9819 35.6128V24.7742C26.9819 24.3467 26.6367 24 26.211 24H25.4402V20.1291C25.4402 16.2872 22.3275 13.1614 18.5027 13.1614C14.6778 13.1614 11.5651 16.2872 11.5651 20.1291ZM11.5651 34.8386V30.9677H14.6485V29.4193H11.5651V25.5484H25.4402V29.4193H22.3568V30.9677H25.4402V34.8386H11.5651ZM20.8152 24H16.1901V20.1291C16.1901 18.8483 17.2278 17.8065 18.5027 17.8065C19.7778 17.8065 20.8152 18.8483 20.8152 20.1291V24ZM23.8985 20.1291V24H22.3568V20.1291C22.3568 17.9944 20.6281 16.2581 18.5027 16.2581C16.3776 16.2581 14.6485 17.9944 14.6485 20.1291V24H13.1068V20.1291C13.1068 17.1404 15.5273 14.7098 18.5027 14.7098C21.4784 14.7098 23.8985 17.1404 23.8985 20.1291Z" fill="white"/>
<path d="M18.501 27.8713C17.2262 27.8713 16.1885 28.9132 16.1885 30.1939C16.1885 31.4743 17.2262 32.5165 18.501 32.5165C19.7762 32.5165 20.8135 31.4743 20.8135 30.1939C20.8135 28.9132 19.7762 27.8713 18.501 27.8713ZM18.501 30.9681C18.0764 30.9681 17.7302 30.6211 17.7302 30.1939C17.7302 29.7664 18.0764 29.4197 18.501 29.4197C18.9259 29.4197 19.2718 29.7664 19.2718 30.1939C19.2718 30.6211 18.9259 30.9681 18.501 30.9681Z" fill="white"/>
<path d="M17.7299 7.74194H19.2716V9.29031H17.7299V7.74194Z" fill="white"/>
<path d="M20.814 7.74194H22.3557V9.29031H20.814V7.74194Z" fill="white"/>
<path d="M23.8943 7.74194H25.436V9.29031H23.8943V7.74194Z" fill="white"/>
<path d="M14.6459 7.74194H16.1876V9.29031H14.6459V7.74194Z" fill="white"/>
<path d="M11.5618 7.74194H13.1035V9.29031H11.5618V7.74194Z" fill="white"/>
</svg>
