<svg width="38" height="38" viewBox="0 0 38 38" fill="none" xmlns="http://www.w3.org/2000/svg">
<path d="M36.3703 28.5294C32.9693 25.1277 33.1923 25.3432 33.0966 25.2725L24.094 18.6245L27.5864 15.1318C30.3943 16.1325 33.5733 15.4407 35.7128 13.3008C38.0437 10.9694 38.6556 7.40513 37.2353 4.43159C36.9043 3.73877 35.9863 3.58184 35.4441 4.12426L32.5651 7.00383C32.1312 7.4378 31.4253 7.43787 30.9911 7.00383C30.5561 6.56875 30.5561 5.86473 30.9911 5.42965L33.8702 2.55C34.4131 2.00714 34.2552 1.08918 33.563 0.758542C30.59 -0.661979 27.0264 -0.0500029 24.6954 2.28128C22.5554 4.42171 21.8645 7.60148 22.8648 10.4091L18.8371 14.4372C18.017 13.7993 19.0991 14.8889 11.3755 6.69762L12.1852 5.88781C12.6973 5.37568 12.5906 4.51814 11.9708 4.14623L6.01003 0.569025C4.4475 -0.368685 2.45643 -0.123568 1.16792 1.16519C-0.120524 2.45387 -0.365669 4.44547 0.571863 6.00822L4.1484 11.9702C4.52083 12.5913 5.37857 12.6958 5.88964 12.1846L6.65321 11.4209C14.3368 19.5698 13.3255 18.4629 13.9329 19.2441C13.9473 19.2626 13.9633 19.2789 13.9786 19.2963L10.4071 22.8681C7.60017 21.8677 4.42078 22.5587 2.2809 24.6992C-0.0500164 27.0305 -0.661877 30.5947 0.75845 33.5684C1.08954 34.2613 2.00733 34.418 2.54965 33.8757L5.42867 30.9961C5.86278 30.562 6.56867 30.5622 7.00263 30.9961C7.43763 31.4311 7.43763 32.1352 7.00263 32.5702L4.12346 35.4499C3.58062 35.9927 3.73856 36.9107 4.43072 37.2414C5.49933 37.752 6.64393 38 7.78052 38C9.80595 37.9999 11.8051 37.212 13.2982 35.7187C15.4383 33.5782 16.1292 30.3985 15.1289 27.5908L18.179 24.5403L25.2806 33.1721C25.3346 33.2376 25.1563 33.0551 28.3325 36.2319C29.4888 37.3884 31.026 37.9879 32.5376 37.9879C33.6468 37.9879 34.7422 37.6648 35.6622 37.0022C38.47 34.9795 38.801 30.9603 36.3703 28.5294ZM7.48632 9.05964C7.05488 8.60214 6.33162 8.59412 5.88964 9.03625L5.32358 9.60235L2.48048 4.8628C2.06945 4.17764 2.17685 3.30443 2.7418 2.73937C3.30675 2.17424 4.17979 2.0669 4.86476 2.478L9.60341 5.32171L9.03734 5.88774C8.6117 6.31346 8.6016 7.00056 9.01463 7.43854C17.8891 16.8505 16.4931 15.4342 17.2508 16.0236L15.5618 17.7127C14.978 16.962 16.3334 18.4425 7.48632 9.05964ZM13.0295 26.5421C12.696 26.8757 12.6089 27.3833 12.8123 27.809C13.8268 29.933 13.3895 32.4789 11.7244 34.1443C10.6575 35.2114 9.22957 35.7743 7.78245 35.7742C7.52216 35.7742 7.26136 35.756 7.00181 35.7192L8.57644 34.1443C9.88128 32.8393 9.88151 30.7268 8.57644 29.4216C7.27472 28.1196 5.15644 28.1197 3.85471 29.4216L2.28008 30.9966C2.03902 29.294 2.59611 27.5321 3.85471 26.2733C5.51989 24.6077 8.0653 24.1706 10.1888 25.1851C10.6144 25.3884 11.1219 25.3015 11.4555 24.9678L24.9641 11.4577C25.2977 11.1241 25.3847 10.6164 25.1814 10.1907C24.1669 8.06684 24.6042 5.5208 26.2693 3.85539C27.5282 2.5964 29.2896 2.03928 30.9917 2.28046L29.4171 3.85539C28.7865 4.48607 28.4391 5.32476 28.4391 6.21674C28.4391 7.10872 28.7865 7.94726 29.4171 8.57809C30.7188 9.88013 32.8371 9.88006 34.1388 8.57809L35.7135 7.00316C35.9545 8.70569 35.3974 10.4676 34.1388 11.7265C32.4737 13.3919 29.9282 13.8292 27.8046 12.8146C27.3792 12.6113 26.8716 12.6983 26.538 13.0319L13.0295 26.5421ZM19.7557 22.9635L22.5024 20.2164L25.3019 22.2836L21.9572 25.6289C19.6831 22.865 19.8251 23.0315 19.7557 22.9635ZM34.3613 35.1957C33.0632 36.1307 31.148 35.8997 29.9063 34.6577L26.9649 31.7159L23.3781 27.3561L27.1126 23.6209L31.7075 27.014L34.7963 30.1035C36.2082 31.5156 36.1175 33.9306 34.3613 35.1957Z" fill="white"/>
</svg>
