<svg width="74" height="74" viewBox="0 0 74 74" fill="none" xmlns="http://www.w3.org/2000/svg">
<circle cx="37" cy="37" r="37" fill="#D9B07B"/>
<path d="M56.8246 54.6996L51.7539 48.2254C53.3969 47.7378 54.8163 46.6942 55.7654 45.2759C56.9596 43.2259 56.4196 40.7241 55.8971 38.3076C55.5812 37.0662 55.3921 35.7963 55.3329 34.5172C55.3919 33.2371 55.5808 31.966 55.8971 30.7236C56.4162 28.3054 56.9596 25.8052 55.7654 23.7586C54.5288 21.6367 52.0388 20.8513 49.6306 20.0932C48.4317 19.7652 47.2707 19.3137 46.1665 18.7459C45.1644 18.1004 44.234 17.3514 43.3907 16.5114C41.6041 14.8646 39.5783 13 37 13C34.4218 13 32.396 14.8646 30.6085 16.5106C29.7655 17.3508 28.8353 18.1001 27.8336 18.7459C26.7294 19.3125 25.5687 19.7629 24.3703 20.0899C21.962 20.848 19.4721 21.6334 18.2355 23.7553C17.0413 25.8052 17.5813 28.307 18.1038 30.7236C18.4197 31.9661 18.6085 33.2371 18.6671 34.5172C18.6082 35.7974 18.4192 37.0685 18.103 38.3109C17.5838 40.7291 17.0405 43.2292 18.2346 45.2759C19.185 46.6948 20.6059 47.738 22.2504 48.2246L17.1755 54.6988C16.893 55.0596 16.9585 55.5795 17.3219 55.8601C17.4965 55.9949 17.7178 56.0552 17.9371 56.0279L23.8953 55.2888L25.3661 60.4C25.4523 60.6996 25.7006 60.9257 26.0086 60.9851C26.0608 60.9949 26.1138 61 26.1669 61C26.4242 61.0002 26.6672 60.8823 26.8253 60.6806L32.1468 53.8828C33.4564 55.1489 35.1765 55.9116 37 56.0345C38.8235 55.9116 40.5437 55.1489 41.8532 53.8828L47.1748 60.6781C47.3323 60.8807 47.5753 60.9996 47.8331 61C47.8862 61 47.9393 60.9949 47.9914 60.9851C48.2995 60.9257 48.5478 60.6996 48.6339 60.4L50.1047 55.2897L56.0629 56.0287C56.5196 56.0856 56.9362 55.7641 56.9935 55.3106C57.021 55.0927 56.9603 54.873 56.8246 54.6996ZM26.5169 58.3774L25.3011 54.1517C25.1881 53.7598 24.8044 53.508 24.397 53.5583L19.7304 54.1377L23.9128 48.7981L24.3737 48.9446C25.5709 49.2718 26.7305 49.7222 27.8336 50.2886C28.8356 50.9341 29.766 51.683 30.6093 52.523L30.896 52.7862L26.5169 58.3774ZM37 54.3793C35.0751 54.3793 33.4559 52.8897 31.741 51.3106C30.808 50.3849 29.7774 49.5617 28.6669 48.8552C27.4587 48.227 26.1868 47.7277 24.8728 47.3655C22.6704 46.6712 20.5896 46.0157 19.6763 44.4483C18.8046 42.9512 19.2546 40.8648 19.7321 38.6552C20.0757 37.3001 20.2774 35.9135 20.3337 34.5172C20.2777 33.121 20.0764 31.7344 19.7329 30.3793C19.2554 28.1705 18.8054 26.0841 19.6771 24.5862C20.5937 23.0188 22.6712 22.3633 24.8736 21.669C26.1875 21.3067 27.4589 20.8073 28.6669 20.1793C29.7771 19.4728 30.8075 18.6495 31.7401 17.7239C33.4559 16.1448 35.0751 14.6552 37 14.6552C38.925 14.6552 40.5441 16.1448 42.2591 17.7239C43.1921 18.6496 44.2227 19.4728 45.3332 20.1793C46.5414 20.8074 47.8132 21.3068 49.1272 21.669C51.3297 22.3633 53.4105 23.0188 54.3238 24.5862C55.1954 26.0833 54.7454 28.1697 54.268 30.3793C53.9243 31.7344 53.7227 33.121 53.6663 34.5172C53.7223 35.9135 53.9237 37.3001 54.2671 38.6552C54.7446 40.864 55.1946 42.9503 54.323 44.4483C53.4063 46.0157 51.3289 46.6712 49.1264 47.3655C47.8126 47.7278 46.5412 48.2271 45.3332 48.8552C44.223 49.5617 43.1926 50.385 42.2599 51.3106C40.5441 52.8897 38.925 54.3793 37 54.3793ZM49.6072 53.5583C49.1999 53.508 48.8161 53.7598 48.7031 54.1517L47.4831 58.3774L43.1049 52.787L43.3915 52.5239C44.2345 51.6837 45.1647 50.9344 46.1665 50.2886C47.2706 49.722 48.4313 49.2716 49.6297 48.9446L50.0906 48.7981L54.2738 54.1377L49.6072 53.5583Z" fill="white"/>
<path d="M36.9996 19.6206C28.7155 19.6206 21.9999 26.29 21.9999 34.5172C21.9999 42.7443 28.7155 49.4137 36.9996 49.4137C45.2836 49.4137 51.9992 42.7443 51.9992 34.5172C51.9896 26.294 45.2797 19.6302 36.9996 19.6206ZM36.9996 47.7586C29.636 47.7586 23.6665 41.8302 23.6665 34.5172C23.6665 27.2042 29.636 21.2758 36.9996 21.2758C44.3631 21.2758 50.3326 27.2042 50.3326 34.5172C50.3238 41.8266 44.3596 47.7499 36.9996 47.7586Z" fill="white"/>
<path d="M46.6141 31.0605C46.3006 30.6327 45.8002 30.3796 45.2675 30.3794H40.1659L38.5826 25.557C38.2952 24.6886 37.3534 24.216 36.4789 24.5014C35.9759 24.6656 35.5813 25.0575 35.416 25.557L33.8369 30.3794H28.7312C27.8107 30.3789 27.0641 31.1195 27.0637 32.0337C27.0634 32.5634 27.3184 33.0611 27.7495 33.3727L31.8794 36.3521L30.302 41.1744C30.0174 42.0438 30.4964 42.9776 31.3717 43.2602C31.8793 43.424 32.4351 43.3365 32.8669 43.0249L36.9993 40.0464L41.13 43.0257C41.7119 43.455 42.5081 43.455 43.09 43.0257C43.6805 42.6089 43.9263 41.8571 43.695 41.1753L42.1175 36.3521L46.2474 33.3727C46.9917 32.8348 47.1559 31.7995 46.6141 31.0605ZM40.6476 35.3672C40.3553 35.5782 40.2331 35.9521 40.3451 36.2933L42.11 41.6875L37.4893 38.354C37.1973 38.1435 36.8021 38.1435 36.5102 38.354L31.8894 41.6875L33.6536 36.2933C33.7651 35.9523 33.643 35.5789 33.3511 35.3681L28.7312 32.0345H34.4419C34.8029 32.0345 35.1228 31.8036 35.2343 31.4627L36.9993 26.0685L38.7643 31.4618C38.8758 31.8028 39.1957 32.0337 39.5568 32.0337L45.2675 32.0345L40.6476 35.3672Z" fill="white"/>
</svg>
