<svg width="40" height="48" viewBox="0 0 40 48" fill="none" xmlns="http://www.w3.org/2000/svg">
<path d="M39.8246 41.6996L34.7539 35.2254C36.3969 34.7378 37.8163 33.6942 38.7654 32.2759C39.9596 30.2259 39.4196 27.7241 38.8971 25.3076C38.5812 24.0662 38.3921 22.7963 38.3329 21.5172C38.3919 20.2371 38.5808 18.966 38.8971 17.7236C39.4162 15.3054 39.9596 12.8052 38.7654 10.7586C37.5288 8.63669 35.0388 7.85131 32.6306 7.09324C31.4317 6.76521 30.2707 6.31366 29.1665 5.74593C28.1644 5.10041 27.234 4.35145 26.3907 3.51145C24.6041 1.86455 22.5783 0 20 0C17.4218 0 15.396 1.86455 13.6085 3.51062C12.7655 4.35083 11.8353 5.1001 10.8336 5.74593C9.72943 6.31252 8.56873 6.76293 7.37032 7.08993C4.96204 7.848 2.4721 8.63338 1.23546 10.7553C0.0413241 12.8052 0.581312 15.307 1.1038 17.7236C1.41973 18.9661 1.60848 20.2371 1.66712 21.5172C1.60816 22.7974 1.41921 24.0685 1.10297 25.3109C0.583812 27.7291 0.0404909 30.2292 1.23463 32.2759C2.18502 33.6948 3.60593 34.738 5.25037 35.2246L0.175488 41.6988C-0.107006 42.0596 -0.0414866 42.5795 0.321943 42.8601C0.496522 42.9949 0.717767 43.0552 0.937137 43.0279L6.89533 42.2888L8.36613 47.4C8.45227 47.6996 8.7006 47.9257 9.00862 47.9851C9.0608 47.9949 9.11382 48 9.16695 48C9.42423 48.0002 9.66725 47.8823 9.82526 47.6806L15.1468 40.8828C16.4564 42.1489 18.1765 42.9116 20 43.0345C21.8235 42.9116 23.5437 42.1489 24.8532 40.8828L30.1748 47.6781C30.3323 47.8807 30.5753 47.9996 30.8331 48C30.8862 48 30.9393 47.9949 30.9914 47.9851C31.2995 47.9257 31.5478 47.6996 31.6339 47.4L33.1047 42.2897L39.0629 43.0287C39.5196 43.0856 39.9362 42.7641 39.9935 42.3106C40.021 42.0927 39.9603 41.873 39.8246 41.6996ZM9.51694 45.3774L8.30113 41.1517C8.18812 40.7598 7.80437 40.508 7.39699 40.5583L2.73043 41.1377L6.91283 35.7981L7.37365 35.9446C8.57092 36.2718 9.73047 36.7222 10.8336 37.2886C11.8356 37.9341 12.766 38.683 13.6093 39.523L13.896 39.7862L9.51694 45.3774ZM20 41.3793C18.0751 41.3793 16.4559 39.8897 14.741 38.3106C13.808 37.3849 12.7774 36.5617 11.6669 35.8552C10.4587 35.227 9.18684 34.7277 7.87281 34.3655C5.67036 33.6712 3.58958 33.0157 2.67626 31.4483C1.80462 29.9512 2.25461 27.8648 2.7321 25.6552C3.07573 24.3001 3.2774 22.9135 3.33375 21.5172C3.27771 20.121 3.07636 18.7344 2.73293 17.3793C2.25544 15.1705 1.80545 13.0841 2.6771 11.5862C3.59374 10.0188 5.67119 9.36331 7.87364 8.66897C9.18747 8.30669 10.4589 7.80735 11.6669 7.17931C12.7771 6.47276 13.8075 5.64952 14.7401 4.72386C16.4559 3.14483 18.0751 1.65517 20 1.65517C21.925 1.65517 23.5441 3.14483 25.2591 4.72386C26.1921 5.64962 27.2227 6.47276 28.3332 7.17931C29.5414 7.80745 30.8132 8.30679 32.1272 8.66897C34.3297 9.36331 36.4105 10.0188 37.3238 11.5862C38.1954 13.0833 37.7454 15.1697 37.268 17.3793C36.9243 18.7344 36.7227 20.121 36.6663 21.5172C36.7223 22.9135 36.9237 24.3001 37.2671 25.6552C37.7446 27.864 38.1946 29.9503 37.323 31.4483C36.4063 33.0157 34.3289 33.6712 32.1264 34.3655C30.8126 34.7278 29.5412 35.2271 28.3332 35.8552C27.223 36.5617 26.1926 37.385 25.2599 38.3106C23.5441 39.8897 21.925 41.3793 20 41.3793ZM32.6072 40.5583C32.1999 40.508 31.8161 40.7598 31.7031 41.1517L30.4831 45.3774L26.1049 39.787L26.3915 39.5239C27.2345 38.6837 28.1647 37.9344 29.1665 37.2886C30.2706 36.722 31.4313 36.2716 32.6297 35.9446L33.0906 35.7981L37.2738 41.1377L32.6072 40.5583Z" fill="white"/>
<path d="M19.9996 6.62061C11.7155 6.62061 4.99991 13.29 4.99991 21.5172C4.99991 29.7443 11.7155 36.4137 19.9996 36.4137C28.2836 36.4137 34.9992 29.7443 34.9992 21.5172C34.9896 13.294 28.2797 6.63023 19.9996 6.62061ZM19.9996 34.7586C12.636 34.7586 6.66654 28.8302 6.66654 21.5172C6.66654 14.2042 12.636 8.27578 19.9996 8.27578C27.3631 8.27578 33.3326 14.2042 33.3326 21.5172C33.3238 28.8266 27.3596 34.7499 19.9996 34.7586Z" fill="white"/>
<path d="M29.6141 18.0605C29.3006 17.6327 28.8002 17.3796 28.2675 17.3794H23.1659L21.5826 12.557C21.2952 11.6886 20.3534 11.216 19.4789 11.5014C18.9759 11.6656 18.5813 12.0575 18.416 12.557L16.8369 17.3794H11.7312C10.8107 17.3789 10.0641 18.1195 10.0637 19.0337C10.0634 19.5634 10.3184 20.0611 10.7495 20.3727L14.8794 23.3521L13.302 28.1744C13.0174 29.0438 13.4964 29.9776 14.3717 30.2602C14.8793 30.424 15.4351 30.3365 15.8669 30.0249L19.9993 27.0464L24.13 30.0257C24.7119 30.455 25.5081 30.455 26.09 30.0257C26.6805 29.6089 26.9263 28.8571 26.695 28.1753L25.1175 23.3521L29.2474 20.3727C29.9917 19.8348 30.1559 18.7995 29.6141 18.0605ZM23.6476 22.3672C23.3553 22.5782 23.2331 22.9521 23.3451 23.2933L25.11 28.6875L20.4893 25.354C20.1973 25.1435 19.8021 25.1435 19.5102 25.354L14.8894 28.6875L16.6536 23.2933C16.7651 22.9523 16.643 22.5789 16.3511 22.3681L11.7312 19.0345H17.4419C17.8029 19.0345 18.1228 18.8036 18.2343 18.4627L19.9993 13.0685L21.7643 18.4618C21.8758 18.8028 22.1957 19.0337 22.5568 19.0337L28.2675 19.0345L23.6476 22.3672Z" fill="white"/>
</svg>
