<svg width="74" height="74" viewBox="0 0 74 74" fill="none" xmlns="http://www.w3.org/2000/svg">
<circle cx="37" cy="37" r="37" fill="#D9B07B"/>
<path d="M54.3703 46.5294C50.9693 43.1277 51.1923 43.3432 51.0966 43.2725L42.094 36.6245L45.5864 33.1318C48.3943 34.1325 51.5733 33.4407 53.7128 31.3008C56.0437 28.9694 56.6556 25.4051 55.2353 22.4316C54.9043 21.7388 53.9863 21.5818 53.4441 22.1243L50.5651 25.0038C50.1312 25.4378 49.4253 25.4379 48.9911 25.0038C48.5561 24.5688 48.5561 23.8647 48.9911 23.4296L51.8702 20.55C52.4131 20.0071 52.2552 19.0892 51.563 18.7585C48.59 17.338 45.0264 17.95 42.6954 20.2813C40.5554 22.4217 39.8645 25.6015 40.8648 28.4091L36.8371 32.4372C36.017 31.7993 37.0991 32.8889 29.3755 24.6976L30.1852 23.8878C30.6973 23.3757 30.5906 22.5181 29.9708 22.1462L24.01 18.569C22.4475 17.6313 20.4564 17.8764 19.1679 19.1652C17.8795 20.4539 17.6343 22.4455 18.5719 24.0082L22.1484 29.9702C22.5208 30.5913 23.3786 30.6958 23.8896 30.1846L24.6532 29.4209C32.3368 37.5698 31.3255 36.4629 31.9329 37.2441C31.9473 37.2626 31.9633 37.2789 31.9786 37.2963L28.4071 40.8681C25.6002 39.8677 22.4208 40.5587 20.2809 42.6992C17.95 45.0305 17.3381 48.5947 18.7584 51.5684C19.0895 52.2613 20.0073 52.418 20.5496 51.8757L23.4287 48.9961C23.8628 48.562 24.5687 48.5622 25.0026 48.9961C25.4376 49.4311 25.4376 50.1352 25.0026 50.5702L22.1235 53.4499C21.5806 53.9927 21.7386 54.9107 22.4307 55.2414C23.4993 55.752 24.6439 56 25.7805 56C27.806 55.9999 29.8051 55.212 31.2982 53.7187C33.4383 51.5782 34.1292 48.3985 33.1289 45.5908L36.179 42.5403L43.2806 51.1721C43.3346 51.2376 43.1563 51.0551 46.3325 54.2319C47.4888 55.3884 49.026 55.9879 50.5376 55.9879C51.6468 55.9879 52.7422 55.6648 53.6622 55.0022C56.47 52.9795 56.801 48.9603 54.3703 46.5294ZM25.4863 27.0596C25.0549 26.6021 24.3316 26.5941 23.8896 27.0363L23.3236 27.6024L20.4805 22.8628C20.0695 22.1776 20.1768 21.3044 20.7418 20.7394C21.3068 20.1742 22.1798 20.0669 22.8648 20.478L27.6034 23.3217L27.0373 23.8877C26.6117 24.3135 26.6016 25.0006 27.0146 25.4385C35.8891 34.8505 34.4931 33.4342 35.2508 34.0236L33.5618 35.7127C32.978 34.962 34.3334 36.4425 25.4863 27.0596ZM31.0295 44.5421C30.696 44.8757 30.6089 45.3833 30.8123 45.809C31.8268 47.933 31.3895 50.4789 29.7244 52.1443C28.6575 53.2114 27.2296 53.7743 25.7824 53.7742C25.5222 53.7742 25.2614 53.756 25.0018 53.7192L26.5764 52.1443C27.8813 50.8393 27.8815 48.7268 26.5764 47.4216C25.2747 46.1196 23.1564 46.1197 21.8547 47.4216L20.2801 48.9966C20.039 47.294 20.5961 45.5321 21.8547 44.2733C23.5199 42.6077 26.0653 42.1706 28.1888 43.1851C28.6144 43.3884 29.1219 43.3015 29.4555 42.9678L42.9641 29.4577C43.2977 29.1241 43.3847 28.6164 43.1814 28.1907C42.1669 26.0668 42.6042 23.5208 44.2693 21.8554C45.5282 20.5964 47.2896 20.0393 48.9917 20.2805L47.4171 21.8554C46.7865 22.4861 46.4391 23.3248 46.4391 24.2167C46.4391 25.1087 46.7865 25.9473 47.4171 26.5781C48.7188 27.8801 50.8371 27.8801 52.1388 26.5781L53.7135 25.0032C53.9545 26.7057 53.3974 28.4676 52.1388 29.7265C50.4737 31.3919 47.9282 31.8292 45.8046 30.8146C45.3792 30.6113 44.8716 30.6983 44.538 31.0319L31.0295 44.5421ZM37.7557 40.9635L40.5024 38.2164L43.3019 40.2836L39.9572 43.6289C37.6831 40.865 37.8251 41.0315 37.7557 40.9635ZM52.3613 53.1957C51.0632 54.1307 49.148 53.8997 47.9063 52.6577L44.9649 49.7159L41.3781 45.3561L45.1126 41.6209L49.7075 45.014L52.7963 48.1035C54.2082 49.5156 54.1175 51.9306 52.3613 53.1957Z" fill="white"/>
</svg>
