<svg width="74" height="74" viewBox="0 0 74 74" fill="none" xmlns="http://www.w3.org/2000/svg">
<circle cx="37" cy="37" r="37" fill="#D9B07B"/>
<path d="M57.352 20.6115L41.8678 12.3459C40.399 11.5616 38.3793 12.1649 37.5837 13.6129L28.5257 30.2045H17.5093C16.1016 30.2045 15 31.2905 15 32.6781V37.0221V59.5263C15 60.914 16.1016 62 17.5093 62H52.7007C54.1083 62 55.21 60.914 55.21 59.5263V53.2517H56.2504C56.8012 53.2517 57.2296 52.8294 57.2296 52.2864V45.1067C57.2296 44.5637 56.8012 44.1414 56.2504 44.1414H55.21V37.0824C55.21 35.9361 54.3531 34.9105 53.2515 34.6691L58.6373 24.8348C59.4329 23.3265 58.8821 21.4562 57.352 20.6115ZM46.3356 16.9312L36.6656 34.6088H33.9115L44.2547 15.8452L46.3356 16.9312ZM39.3585 14.5179C39.6646 13.9749 40.399 13.7335 40.9498 14.0352L42.4799 14.8799L31.7082 34.6088H28.3421L39.3585 14.5179ZM16.8973 32.6178C16.8973 32.4368 17.1421 32.1351 17.4481 32.1351H27.4241L26.0776 34.5485H17.4481C17.2645 34.5485 17.0809 34.5485 16.8973 34.6088V32.6178ZM53.1903 59.5263C53.1903 59.828 52.9455 60.0693 52.6395 60.0693H17.4481C17.1421 60.0693 16.8973 59.828 16.8973 59.5263V37.0824C16.8973 36.7808 17.1421 36.5394 17.4481 36.5394H26.6897H30.6066H37.7673H51.5378H52.5783C52.8843 36.5394 53.1291 36.7808 53.1291 37.0824V44.1414H49.3957C47.7433 44.1414 46.458 45.4687 46.458 47.0374V50.3557C46.458 51.9847 47.8045 53.2517 49.3957 53.2517H53.1903V59.5263ZM55.1488 46.0721H55.21V51.321H55.1488H49.3957C48.8449 51.321 48.4165 50.8987 48.4165 50.3557V47.0374C48.4165 46.4944 48.8449 46.0721 49.3957 46.0721H55.1488ZM56.8624 23.8695L50.987 34.6088H38.8689L48.0493 17.8965L56.3728 22.3612C56.9848 22.6025 57.1684 23.3265 56.8624 23.8695Z" fill="white"/>
<path d="M53.1282 22.9645L52.6386 22.7231C51.4145 22.0595 49.7621 22.5422 49.0888 23.7487L48.4768 24.895C48.1708 25.4983 48.0484 26.2223 48.2932 26.8859C48.4768 27.5495 48.9664 28.0925 49.5784 28.3941L50.0681 28.6354C50.4353 28.8164 50.8637 28.9371 51.2921 28.9371C52.2714 28.9371 53.1282 28.3941 53.6178 27.6098L54.2298 26.4636C54.8419 25.1967 54.3522 23.6281 53.1282 22.9645ZM52.455 25.5586L51.8429 26.7049C51.6593 27.0065 51.2309 27.1272 50.9249 26.9462L50.4353 26.6446C50.3129 26.5842 50.1905 26.4032 50.1293 26.2826C50.0681 26.1016 50.0681 25.9206 50.1905 25.8L50.8025 24.6537C50.9249 24.4727 51.1697 24.2917 51.4145 24.2917C51.5369 24.2917 51.5981 24.2917 51.7205 24.352L52.2102 24.5934C52.455 24.8347 52.5774 25.1967 52.455 25.5586Z" fill="white"/>
</svg>
