<svg width="216" height="40" viewBox="0 0 216 40" fill="none" xmlns="http://www.w3.org/2000/svg">
<circle cx="20" cy="20" r="20" fill="#00A7B9"/>
<path d="M13.9814 23.1889C12.0773 26.5419 10.0275 28.6515 6.71346 29.6451C5.53249 30.0375 5.3608 29.5432 6.20882 29.105C8.80489 27.7393 11.068 25.0896 12.1865 22.6895C12.8212 21.2627 12.6496 21.1608 11.7859 21.4054C9.29392 22.0271 8.87252 22.0271 7.83721 21.4666C7.33257 21.1965 7.43662 20.743 8.00369 20.743C9.79857 20.7022 12.1033 20.2895 12.5039 19.9175C13.2427 19.2551 13.5184 19.1939 14.5953 19.8767C15.8231 20.6003 15.948 20.9315 15.485 21.3239C15.0375 21.7214 14.4444 22.3175 13.9814 23.1889ZM29.1884 29.3343C27.7734 29.3343 27.1595 29.1712 24.1628 25.8998C22.2379 23.7902 20.7811 22.2972 19.366 21.1404C19.3244 21.6806 19.3036 22.2972 19.3036 23.0258C19.3036 24.31 19.4285 26.0068 19.5377 27.617C19.6626 29.4362 19.3244 31.0923 18.1435 32.9777C17.8053 33.5382 17.0873 33.7013 16.7492 32.9777C16.2861 32.0248 15.3549 30.4961 14.4913 29.7725C13.919 29.2782 14.0282 29.0082 14.8711 29.212C17.1081 29.7521 17.2798 29.584 17.4463 28.2591C17.6804 26.5622 17.722 25.5074 17.7429 23.4182C17.7845 20.7277 17.5296 18.4958 16.8532 17.5021C16.4734 17.5633 16.0728 17.6041 15.6722 17.6652C15.6306 17.8741 15.5058 17.9353 15.2925 17.9353C15.0583 17.9353 14.5121 17.441 14.1115 16.1569C12.8004 12.1211 12.2542 11.1682 11.2813 10.302C10.7766 9.80768 10.8807 9.41022 11.7443 9.51723C12.3582 9.57838 12.8004 9.63952 13.1594 9.84845C13.4976 9.84845 13.8982 9.84845 14.2988 9.84845C17.3006 6.82672 18.5857 4.54895 18.544 3.72345C18.5024 2.85209 19.1163 2.66865 20.6147 3.72345C22.0922 4.71711 22.0297 5.10948 21.1661 5.50184C20.2765 5.93497 18.3984 7.44839 15.6931 9.74144C18.0186 9.53252 20.8904 8.97709 23.4657 8.14649C25.1981 7.58597 25.453 7.60635 26.7172 8.35542C28.7046 9.51213 28.7046 9.74144 27.7734 10.5058C27.0554 11.0663 26.1242 12.4931 25.4478 13.8587C24.8339 14.9747 24.4333 15.7187 23.8871 16.5085C23.3356 17.2728 22.9766 17.3798 22.576 17.069C22.3419 16.8601 20.7811 16.9059 17.5504 17.4002C19.7875 18.4346 19.8551 18.827 19.6418 19.4283C19.6002 19.5506 19.5377 19.8003 19.5169 20.1519C20.1308 20.6462 20.6563 21.1048 21.2494 21.5379C23.8923 19.571 25.4322 17.5837 25.4114 16.9671C25.3698 15.8511 25.812 15.6422 27.5653 16.697C28.8763 17.4614 28.7046 17.8996 27.6693 18.3531C26.8265 18.7455 23.7414 20.7124 21.8164 21.9965C24.9224 24.417 27.4976 25.8438 29.485 26.5266C30.9001 26.9801 33.6678 27.6833 35.187 27.9534C36.1599 28.1164 36.2639 28.5139 35.3535 28.6769C33.3089 29.0846 31.1134 29.3343 29.1884 29.3343ZM20.2973 9.88412C16.8532 10.5873 15.3341 10.7759 14.0855 10.7555C14.3612 11.2956 14.5901 12.0396 14.8867 13.1963C15.8595 13.1963 17.0821 12.967 19.4493 12.3249C20.5678 12.0345 21.3482 12.1619 21.8581 12.5542C22.1338 12.7836 21.9205 13.1555 20.6771 13.3797C17.5087 13.981 16.2393 14.0014 14.9959 13.711C15.2092 14.5365 15.3965 15.5301 15.6098 16.7531C19.9383 16.0906 21.291 15.9887 22.4355 16.1926C23.45 14.3326 24.1888 12.2179 24.4229 10.6077C24.5842 9.34398 24.1628 9.079 20.2973 9.88412Z" fill="black"/>
<path d="M54.7367 25.8262H52V13.1738H54.7367V25.8262Z" fill="#00A7B9"/>
<path d="M60.1827 23.732H66.8784V25.8262H56.7618V24.2968L63.3298 15.2855H56.7709V13.1738H66.7325V14.6685L60.1827 23.732Z" fill="#00A7B9"/>
<path d="M78.6644 13.1738V21.5074C78.6644 22.892 78.2083 23.9869 77.296 24.7921C76.3899 25.5974 75.1493 26 73.5741 26C72.0234 26 70.7919 25.609 69.8796 24.8269C68.9674 24.0448 68.5022 22.9702 68.4839 21.603V13.1738H71.2206V21.5248C71.2206 22.3532 71.4274 22.9586 71.8409 23.3409C72.2605 23.7175 72.8383 23.9058 73.5741 23.9058C75.1128 23.9058 75.8942 23.1353 75.9186 21.5943V13.1738H78.6644Z" fill="#00A7B9"/>
<path d="M84.4844 13.1738L87.8961 22.3503L91.2896 13.1738H94.8837V25.8262H92.1379V22.3677L92.4116 16.3978L88.8266 25.8262H86.9474L83.3715 16.4064L83.6451 22.3677V25.8262H80.9084V13.1738H84.4844Z" fill="#00A7B9"/>
<path d="M100.184 25.8262H97.4471V13.1738H100.184V25.8262Z" fill="#00A7B9"/>
<path d="M110.291 25.8262H107.555V13.1738H110.291V25.8262Z" fill="#333333"/>
<path d="M122.561 15.2854H118.492V25.8262H115.755V15.2854H111.742V13.1738H122.561V15.2854Z" fill="#333333"/>
<path d="M138.661 21.6116C138.558 22.973 138.029 24.0448 137.074 24.8269C136.125 25.609 134.873 26 133.316 26C131.613 26 130.272 25.4554 129.293 24.3663C128.32 23.2714 127.833 21.7709 127.833 19.865V19.0916C127.833 17.875 128.058 16.8033 128.508 15.8763C128.958 14.9494 129.6 14.2398 130.433 13.7473C131.272 13.2491 132.245 13 133.352 13C134.885 13 136.119 13.391 137.056 14.1731C137.993 14.9552 138.534 16.053 138.68 17.4666H135.943C135.876 16.6497 135.636 16.0588 135.222 15.6939C134.815 15.3231 134.192 15.1377 133.352 15.1377C132.44 15.1377 131.756 15.4505 131.3 16.0762C130.85 16.6961 130.619 17.6607 130.607 18.9699V19.9258C130.607 21.293 130.822 22.2923 131.254 22.9238C131.692 23.5553 132.379 23.871 133.316 23.871C134.161 23.871 134.791 23.6885 135.204 23.3235C135.624 22.9528 135.864 22.3821 135.925 21.6116H138.661Z" fill="#333333"/>
<path d="M151.369 19.7868C151.369 21.0323 151.138 22.1243 150.675 23.0628C150.213 24.0013 149.55 24.7255 148.687 25.2353C147.829 25.7451 146.844 26 145.731 26C144.63 26 143.648 25.748 142.785 25.244C141.921 24.74 141.252 24.0216 140.778 23.0889C140.303 22.1504 140.063 21.0729 140.057 19.8563V19.2306C140.057 17.9851 140.291 16.8902 140.76 15.9459C141.234 14.9958 141.9 14.2687 142.757 13.7647C143.621 13.2549 144.606 13 145.713 13C146.82 13 147.802 13.2549 148.659 13.7647C149.523 14.2687 150.189 14.9958 150.657 15.9459C151.132 16.8902 151.369 17.9822 151.369 19.2219V19.7868ZM148.596 19.2132C148.596 17.8866 148.346 16.8786 147.848 16.1892C147.349 15.4998 146.637 15.1551 145.713 15.1551C144.795 15.1551 144.086 15.4969 143.587 16.1805C143.089 16.8583 142.836 17.8547 142.83 19.1698V19.7868C142.83 21.0787 143.08 22.0809 143.578 22.7934C144.077 23.506 144.795 23.8623 145.731 23.8623C146.65 23.8623 147.355 23.5205 147.848 22.8369C148.34 22.1475 148.59 21.1453 148.596 19.8302V19.2132Z" fill="#333333"/>
<path d="M156.933 13.1738L160.345 22.3503L163.739 13.1738H167.333V25.8262H164.587V22.3676L164.861 16.3977L161.276 25.8262H159.396L155.82 16.4064L156.094 22.3676V25.8262H153.357V13.1738H156.933Z" fill="#333333"/>
<path d="M172.459 21.3683V25.8262H169.723V13.1738H174.904C175.902 13.1738 176.777 13.3476 177.531 13.6952C178.292 14.0428 178.875 14.5381 179.283 15.1811C179.69 15.8184 179.894 16.5455 179.894 17.3623C179.894 18.602 179.447 19.5811 178.553 20.2995C177.665 21.012 176.434 21.3683 174.859 21.3683H172.459ZM172.459 19.2567H174.904C175.628 19.2567 176.178 19.0945 176.555 18.7701C176.938 18.4456 177.13 17.9822 177.13 17.3797C177.13 16.7598 176.938 16.2587 176.555 15.8763C176.172 15.494 175.643 15.297 174.968 15.2854H172.459V19.2567Z" fill="#333333"/>
<path d="M187.657 23.2193H182.859L181.947 25.8262H179.037L183.981 13.1738H186.517L191.488 25.8262H188.578L187.657 23.2193ZM183.598 21.1076H186.918L185.249 16.3717L183.598 21.1076Z" fill="#333333"/>
<path d="M203.53 25.8262H200.793L195.466 17.5013V25.8262H192.729V13.1738H195.466L200.802 21.516V13.1738H203.53V25.8262Z" fill="#333333"/>
<path d="M210.244 18.8743L213.008 13.1738H216L211.64 21.238V25.8262H208.857V21.238L204.497 13.1738H207.498L210.244 18.8743Z" fill="#333333"/>
</svg>
