<svg width="63" height="58" viewBox="0 0 63 58" fill="none" xmlns="http://www.w3.org/2000/svg">
<path fill-rule="evenodd" clip-rule="evenodd" d="M8.53384 10.0514H28.3035V12.5699H8.53384V10.0514ZM62.7541 9.05303V46.4677C62.7541 47.6475 62.2812 48.7139 61.5157 49.4854C60.7501 50.2568 59.6918 50.7333 58.521 50.7333H31.9287V49.0316H58.521C59.219 49.0316 59.8494 48.7366 60.3223 48.2828C60.7726 47.8063 61.0653 47.171 61.0653 46.4677V9.05303H62.7541ZM4.21063 0H53.7699C54.9183 0 55.9766 0.476475 56.7421 1.24791C57.5077 2.01935 57.9806 3.08574 57.9806 4.26559V41.6802C57.9806 42.8374 57.5077 43.9038 56.7421 44.6752C55.9766 45.4467 54.9183 45.9231 53.7699 45.9231H28.236C28.0558 49.44 26.1644 58.2661 11.3709 57.9938C9.70471 57.9485 8.12854 57.0182 10.155 55.9745C11.0332 55.498 13.1047 54.4316 14.2306 52.8887C15.4014 51.2551 15.469 48.9408 11.506 45.9231H4.21063C3.06227 45.9231 2.00399 45.4467 1.23842 44.6752C0.472851 43.9038 0 42.8374 0 41.6802V4.26559C0 3.08574 0.472851 2.01935 1.23842 1.24791C2.00399 0.476475 3.06227 0 4.21063 0ZM26.5922 44.2214H53.7699C54.4679 44.2214 55.0984 43.9492 55.5487 43.4727C55.9991 43.0189 56.2918 42.3836 56.2918 41.6802V4.26559C56.2918 3.56222 55.9991 2.92692 55.5487 2.45044C55.0984 1.99666 54.4679 1.7017 53.7699 1.7017H4.21063C3.51261 1.7017 2.88214 1.99666 2.43181 2.45044C1.95895 2.90423 1.68875 3.56222 1.68875 4.26559V41.6802C1.68875 42.3836 1.95895 43.0189 2.43181 43.4727C2.88214 43.9492 3.51261 44.2214 4.21063 44.2214H12.4067C12.9246 44.6979 13.3749 45.1517 13.7802 45.6055C17.473 48.9408 17.1127 51.777 15.5816 53.8871C14.861 54.8627 13.8928 55.6795 12.9921 56.2695C25.4664 55.9064 26.5247 47.9652 26.5922 45.4013C26.5922 45.0836 26.6148 44.5391 26.5922 44.2214ZM32.1088 10.0514H47.7129C48.9063 10.0514 49.8971 11.0497 49.8971 12.2522V24.6633C49.8971 25.8658 48.9063 26.8641 47.7129 26.8641H32.1088C30.9155 26.8641 29.9247 25.8658 29.9247 24.6633V12.2522C29.9247 11.0497 30.9155 10.0514 32.1088 10.0514ZM41.791 34.1701H49.8295V36.6659H41.791V34.1701ZM41.791 29.3146H49.8295V31.8104H41.791V29.3146ZM40.4175 34.1701H29.9923V36.6659H40.4175V34.1701ZM40.4175 29.3146H29.9923V31.8104H40.4175V29.3146ZM8.53384 34.1701H28.3035V36.6659H8.53384V34.1701ZM8.53384 29.3146H28.3035V31.8104H8.53384V29.3146ZM8.53384 24.5271H28.3035V27.023H8.53384V24.5271ZM8.53384 19.717H28.3035V22.2128H8.53384V19.717ZM8.53384 14.8615H28.3035V17.3573H8.53384V14.8615Z" fill="#7D7D7D"/>
</svg>
