<svg width="59" height="60" viewBox="0 0 59 60" fill="none" xmlns="http://www.w3.org/2000/svg">
<path d="M55.1522 0H3.84789C1.72646 0 6.48499e-05 1.7183 6.48499e-05 3.82979V43.4043C6.48499e-05 45.5157 1.72646 47.234 3.84789 47.234H21.8044V49.7872H10.2609C9.88 49.7872 9.51959 49.9557 9.27461 50.2468L2.86156 57.9064C2.54348 58.2868 2.47422 58.8166 2.68585 59.2647C2.89748 59.7128 3.35024 60 3.84789 60H55.1522C55.6499 60 56.1027 59.7128 56.313 59.2647C56.5246 58.8153 56.4554 58.2855 56.1373 57.9064L49.7242 50.2468C49.4805 49.9557 49.1201 49.7872 48.7392 49.7872H37.1957V47.234H55.1522C57.2737 47.234 59.0001 45.5157 59.0001 43.4043V3.82979C59.0001 1.7183 57.2737 0 55.1522 0ZM48.1377 52.3404L52.4139 57.4468H6.58626L10.8625 52.3404H21.8044V54.8936H37.1957V52.3404H48.1377ZM34.6305 52.3404H24.3696V47.234H34.6305V52.3404ZM56.4348 43.4043C56.4348 44.1077 55.8602 44.6809 55.1522 44.6809H37.1957H21.8044H3.84789C3.13989 44.6809 2.56528 44.1077 2.56528 43.4043V3.82979C2.56528 3.12638 3.13989 2.55319 3.84789 2.55319H55.1522C55.8602 2.55319 56.4348 3.12638 56.4348 3.82979V43.4043Z" fill="#7D7D7D"/>
<path d="M5.13047 42.1277H53.8696V5.10645H5.13047V42.1277ZM7.69568 7.65964H51.3044V39.5745H7.69568V7.65964Z" fill="#7D7D7D"/>
<path d="M22.1519 11.8901L11.0651 23.6169L22.1519 35.3438L24.022 33.5923L14.5871 23.6169L24.022 13.6416L22.1519 11.8901Z" fill="#7D7D7D"/>
<path d="M34.978 13.6416L44.4128 23.6169L34.978 33.5923L36.848 35.3438L47.9349 23.6169L36.848 11.8901L34.978 13.6416Z" fill="#7D7D7D"/>
</svg>
