<svg width="63" height="64" viewBox="0 0 63 64" fill="none" xmlns="http://www.w3.org/2000/svg">
<path fill-rule="evenodd" clip-rule="evenodd" d="M41.2497 11.204H21.5895C21.2909 11.1811 21.0383 11.0668 20.8545 10.8839C20.6478 10.701 20.533 10.4266 20.533 10.1293V2.7667C20.533 2.49232 20.6478 2.21793 20.8545 2.03501C21.0383 1.82922 21.3139 1.7149 21.5895 1.7149H41.2497C41.5483 1.7149 41.8009 1.82922 42.0077 2.03501C42.1914 2.21793 42.3062 2.49232 42.3062 2.7667V10.1293C42.3062 10.4266 42.1914 10.701 42.0077 10.8839C41.8009 11.0668 41.5483 11.1811 41.2727 11.204H41.2497ZM15.3423 22.8882H4.11119C2.98578 22.8882 1.95224 23.3455 1.21728 24.1C0.459351 24.8317 0 25.8607 0 26.9811V35.8528C0 36.9732 0.459351 37.9793 1.21728 38.7338C1.95224 39.4655 2.98578 39.9228 4.11119 39.9228H17.708V38.2079H4.11119C3.44513 38.2079 2.84798 37.9564 2.43456 37.522H2.41159C1.99818 37.0875 1.72257 36.493 1.72257 35.8528V26.9811C1.72257 26.318 1.99818 25.7235 2.41159 25.3119L2.43456 25.289C2.84798 24.8775 3.44513 24.6031 4.11119 24.6031H5.71892V28.4902H8.15348V24.6031H10.4962V28.4902H12.9078V24.6031H15.3423V30.7996H17.7769V22.8882H17.708H15.3423ZM26.4357 51.3098C25.3102 51.7671 24.2537 52.3616 23.1513 53.0475L21.8421 51.264C23.358 50.4637 24.759 49.7778 26.2289 49.2976C27.7907 48.7717 29.4674 48.4973 31.5115 48.4973C33.4637 48.4973 35.1174 48.7946 36.6792 49.2976C38.1261 49.7778 39.5042 50.4409 40.9971 51.1954L39.5501 53.1618C38.3788 52.4302 37.2534 51.8128 36.0591 51.3326C34.6121 50.7381 33.0962 50.3951 31.2818 50.3951C29.4214 50.3951 27.8826 50.7381 26.4357 51.3098ZM35.416 52.9103C36.4495 53.3219 37.4601 53.8935 38.5166 54.5566L36.7883 56.8893C35.4825 56.372 34.0959 56.0657 32.4657 56.0657C30.1919 56.0657 28.4234 56.5916 26.7009 57.4833L29.2962 61.2104C29.3343 61.2652 29.3729 61.3189 29.412 61.3714C29.2152 61.1851 29.0281 60.9703 28.8472 60.7303L24.1848 54.4194C25.1495 53.8021 26.0911 53.299 27.0558 52.9103C28.319 52.4073 29.6511 52.11 31.2818 52.11C32.8666 52.11 34.1757 52.4073 35.416 52.9103ZM25.494 47.7199C24.093 48.2001 22.7608 48.8403 21.3369 49.5949V18.2465H25.494V47.7199ZM30.6158 46.7824C29.3755 46.8282 28.2731 46.9882 27.2166 47.2397V18.2465H30.5698L30.6158 46.7824ZM35.6227 47.2397C34.5891 46.9882 33.5097 46.8282 32.3383 46.7824L32.2924 18.2465H35.6227V47.2397ZM41.6861 49.6177C40.2162 48.8632 38.8152 48.2229 37.3452 47.7199V18.2465H41.6861V49.6177ZM45.3609 22.8882H45.315V30.7996H47.7266V24.6031H50.276V28.4902H52.7105V24.6031H55.0303V28.4902H57.4648V24.6031H58.8888C59.5549 24.6031 60.152 24.8775 60.5884 25.289V25.3119C61.0018 25.7235 61.2774 26.318 61.2774 26.9811V35.8528C61.2774 36.493 61.0018 37.0875 60.5884 37.522C60.152 37.9564 59.5549 38.2079 58.8888 38.2079H45.3609V39.9228H58.8888C60.0142 39.9228 61.0478 39.4655 61.7827 38.7338H61.8057C62.5407 37.9793 63 36.9732 63 35.8528V26.9811C63 25.8607 62.5407 24.8317 61.8057 24.1H61.7827C61.0478 23.3455 60.0142 22.8882 58.8888 22.8882H47.7266H45.3609ZM44.0288 13.4677C44.0288 12.8503 43.7991 12.3015 43.4087 11.89C43.7991 11.4098 44.0288 10.8153 44.0288 10.1293V2.7667C44.0288 2.01215 43.7302 1.32619 43.2249 0.823151C42.7197 0.320114 42.0077 0 41.2497 0H21.5895C20.8316 0 20.1425 0.320114 19.6373 0.823151C19.132 1.32619 18.8104 2.01215 18.8104 2.7667V10.1293C18.8104 10.8153 19.0401 11.4098 19.4535 11.89C19.0631 12.3015 18.8104 12.8503 18.8104 13.4677V15.9829C18.8104 16.6002 19.0631 17.1718 19.4765 17.5834L19.6143 17.7206V49.8692L19.7521 51.4698L27.3314 61.6906C27.8137 62.3308 28.342 62.8339 28.9162 63.1997C29.697 63.7256 30.5468 63.9771 31.4196 64C32.2694 64 33.1192 63.7713 33.8771 63.2683C34.3824 62.9482 34.8418 62.5138 35.2552 61.9879L43.3627 51.0125L43.4087 49.5949V17.5377C43.7991 17.1261 44.0288 16.5773 44.0288 15.9829V13.4677ZM41.2497 12.9189H41.755C41.9158 12.9189 42.0536 12.9646 42.1455 13.079C42.2373 13.1704 42.3062 13.3076 42.3062 13.4677V15.9829C42.3062 16.1429 42.2373 16.2801 42.1455 16.3716C42.0536 16.4859 41.9158 16.5316 41.755 16.5316H21.0842C20.9464 16.5316 20.8086 16.4859 20.6938 16.3716C20.6019 16.2801 20.533 16.1429 20.533 15.9829V13.4677C20.533 13.3076 20.6019 13.1704 20.6938 13.079C20.8086 12.9646 20.9464 12.9189 21.0842 12.9189H21.5895H41.2497Z" fill="#7D7D7D"/>
</svg>
