<svg width="17" height="24" viewBox="0 0 17 24" fill="none" xmlns="http://www.w3.org/2000/svg">
<path d="M8.8002 0.00500224C3.96816 -0.159251 0 3.74278 0 8.57959C0 14.0688 5.22254 18.0525 8.14976 23.7816C8.29838 24.0725 8.71352 24.0729 8.86265 23.7821C11.5108 18.627 16.0367 15.1703 16.8755 10.204C17.7439 5.06485 13.9657 0.180657 8.8002 0.00500224ZM8.50579 13.0736C6.04518 13.0736 4.0504 11.0615 4.0504 8.57959C4.0504 6.0977 6.04523 4.08559 8.50579 4.08559C10.9664 4.08559 12.9612 6.0977 12.9612 8.57959C12.9612 11.0615 10.9664 13.0736 8.50579 13.0736Z" fill="white"/>
</svg>
