<svg width="210" height="40" viewBox="0 0 210 40" fill="none" xmlns="http://www.w3.org/2000/svg">
<path d="M53.6087 26.8262H51V14.1738H53.6087V26.8262Z" fill="#F6F6F6"/>
<path d="M58.978 24.732H65.3605V26.8262H55.7172V25.2968L61.978 16.2854H55.7259V14.1738H65.2214V15.6684L58.978 24.732Z" fill="#F6F6F6"/>
<path d="M76.7733 14.1738V22.5074C76.7733 23.8919 76.3385 24.9869 75.4689 25.7921C74.6052 26.5974 73.4226 27 71.9212 27C70.4429 27 69.269 26.609 68.3995 25.8269C67.5299 25.0448 67.0864 23.9701 67.069 22.6029V14.1738H69.6777V22.5247C69.6777 23.3532 69.8748 23.9586 70.269 24.3409C70.669 24.7175 71.2197 24.9057 71.9212 24.9057C73.3878 24.9057 74.1327 24.1352 74.1559 22.5943V14.1738H76.7733Z" fill="#F6F6F6"/>
<path d="M82.4991 14.1738L85.7513 23.3503L88.986 14.1738H92.4121V26.8262H89.7947V23.3676L90.0556 17.3977L86.6382 26.8262H84.8469L81.4383 17.4064L81.6991 23.3676V26.8262H79.0905V14.1738H82.4991Z" fill="#F6F6F6"/>
<path d="M97.6423 26.8262H95.0336V14.1738H97.6423V26.8262Z" fill="#F6F6F6"/>
<path d="M107.633 26.8262H105.024V14.1738H107.633V26.8262Z" fill="#F6F6F6"/>
<path d="M119.507 16.2854H115.629V26.8262H113.02V16.2854H109.194V14.1738H119.507V16.2854Z" fill="#F6F6F6"/>
<path d="M135.211 22.6116C135.112 23.973 134.608 25.0448 133.698 25.8269C132.793 26.609 131.599 27 130.115 27C128.492 27 127.214 26.4554 126.28 25.3663C125.353 24.2714 124.889 22.7709 124.889 20.865V20.0916C124.889 18.875 125.103 17.8033 125.532 16.8763C125.961 15.9494 126.573 15.2398 127.367 14.7473C128.167 14.2491 129.095 14 130.15 14C131.611 14 132.787 14.391 133.68 15.1731C134.573 15.9552 135.089 17.053 135.228 18.4666H132.619C132.556 17.6497 132.327 17.0588 131.932 16.6939C131.544 16.3231 130.95 16.1377 130.15 16.1377C129.28 16.1377 128.628 16.4505 128.193 17.0762C127.764 17.6961 127.544 18.6607 127.532 19.9699V20.9258C127.532 22.293 127.738 23.2923 128.15 23.9238C128.567 24.5553 129.222 24.871 130.115 24.871C130.921 24.871 131.521 24.6885 131.915 24.3235C132.315 23.9528 132.544 23.3821 132.602 22.6116H135.211Z" fill="#F6F6F6"/>
<path d="M147.502 20.7868C147.502 22.0323 147.281 23.1243 146.841 24.0628C146.4 25.0013 145.768 25.7255 144.945 26.2353C144.128 26.7451 143.189 27 142.128 27C141.078 27 140.142 26.748 139.319 26.244C138.496 25.74 137.858 25.0216 137.406 24.0889C136.954 23.1504 136.725 22.0729 136.719 20.8563V20.2306C136.719 18.9851 136.942 17.8902 137.389 16.9459C137.841 15.9958 138.476 15.2687 139.293 14.7647C140.116 14.2549 141.055 14 142.11 14C143.165 14 144.102 14.2549 144.919 14.7647C145.742 15.2687 146.377 15.9958 146.823 16.9459C147.275 17.8902 147.502 18.9822 147.502 20.2219V20.7868ZM144.858 20.2132C144.858 18.8866 144.62 17.8786 144.145 17.1892C143.67 16.4998 142.991 16.1551 142.11 16.1551C141.235 16.1551 140.56 16.4969 140.084 17.1805C139.609 17.8583 139.368 18.8547 139.363 20.1698V20.7868C139.363 22.0787 139.6 23.0809 140.076 23.7935C140.551 24.506 141.235 24.8623 142.128 24.8623C143.003 24.8623 143.676 24.5205 144.145 23.8369C144.615 23.1475 144.852 22.1453 144.858 20.8302V20.2132Z" fill="#F6F6F6"/>
<path d="M152.984 14.1738L156.236 23.3503L159.471 14.1738H162.897V26.8262H160.279V23.3676L160.54 17.3977L157.123 26.8262H155.332L151.923 17.4064L152.184 23.3676V26.8262H149.575V14.1738H152.984Z" fill="#F6F6F6"/>
<path d="M167.962 22.3683V26.8262H165.353V14.1738H170.292C171.243 14.1738 172.078 14.3476 172.797 14.6952C173.521 15.0428 174.078 15.5381 174.466 16.1811C174.855 16.8184 175.049 17.5455 175.049 18.3623C175.049 19.6021 174.623 20.5811 173.77 21.2995C172.924 22.012 171.75 22.3683 170.249 22.3683H167.962ZM167.962 20.2567H170.292C170.982 20.2567 171.507 20.0945 171.866 19.7701C172.231 19.4456 172.414 18.9822 172.414 18.3797C172.414 17.7598 172.231 17.2587 171.866 16.8763C171.501 16.494 170.997 16.297 170.353 16.2854H167.962V20.2567Z" fill="#F6F6F6"/>
<path d="M182.627 24.2193H178.053L177.183 26.8262H174.409L179.122 14.1738H181.54L186.279 26.8262H183.505L182.627 24.2193ZM178.757 22.1076H181.922L180.331 17.3717L178.757 22.1076Z" fill="#F6F6F6"/>
<path d="M197.935 26.8262H195.326L190.248 18.5013V26.8262H187.64V14.1738H190.248L195.335 22.516V14.1738H197.935V26.8262Z" fill="#F6F6F6"/>
<path d="M204.513 19.8743L207.148 14.1738H210L205.844 22.238V26.8262H203.191V22.238L199.035 14.1738H201.896L204.513 19.8743Z" fill="#F6F6F6"/>
<circle cx="20" cy="20" r="20" fill="#00A7B9"/>
<path d="M13.9814 23.1894C12.0773 26.5423 10.0275 28.652 6.71346 29.6456C5.53249 30.038 5.3608 29.5437 6.20882 29.1055C8.80489 27.7398 11.068 25.0901 12.1865 22.69C12.8212 21.2632 12.6496 21.1613 11.7859 21.4059C9.29392 22.0276 8.87252 22.0276 7.83721 21.4671C7.33257 21.197 7.43662 20.7435 8.00369 20.7435C9.79857 20.7027 12.1033 20.29 12.5039 19.918C13.2427 19.2555 13.5184 19.1944 14.5953 19.8772C15.8231 20.6008 15.948 20.932 15.485 21.3244C15.0375 21.7218 14.4444 22.318 13.9814 23.1894ZM29.1884 29.3348C27.7734 29.3348 27.1595 29.1717 24.1628 25.9003C22.2379 23.7907 20.7811 22.2977 19.366 21.1409C19.3244 21.6811 19.3036 22.2977 19.3036 23.0263C19.3036 24.3104 19.4285 26.0073 19.5377 27.6175C19.6626 29.4367 19.3244 31.0928 18.1435 32.9782C17.8053 33.5387 17.0873 33.7018 16.7492 32.9782C16.2861 32.0253 15.3549 30.4966 14.4913 29.773C13.919 29.2787 14.0282 29.0087 14.8711 29.2125C17.1081 29.7526 17.2798 29.5845 17.4463 28.2596C17.6804 26.5627 17.722 25.5079 17.7429 23.4187C17.7845 20.7282 17.5296 18.4963 16.8532 17.5026C16.4734 17.5638 16.0728 17.6045 15.6722 17.6657C15.6306 17.8746 15.5058 17.9358 15.2925 17.9358C15.0583 17.9358 14.5121 17.4415 14.1115 16.1574C12.8004 12.1216 12.2542 11.1687 11.2813 10.3024C10.7766 9.80817 10.8807 9.41071 11.7443 9.51772C12.3582 9.57887 12.8004 9.64001 13.1594 9.84894C13.4976 9.84894 13.8982 9.84894 14.2988 9.84894C17.3006 6.8272 18.5857 4.54944 18.544 3.72394C18.5024 2.85258 19.1163 2.66914 20.6147 3.72394C22.0922 4.7176 22.0297 5.10996 21.1661 5.50233C20.2765 5.93546 18.3984 7.44888 15.6931 9.74193C18.0186 9.533 20.8904 8.97758 23.4657 8.14698C25.1981 7.58646 25.453 7.60684 26.7172 8.35591C28.7046 9.51262 28.7046 9.74193 27.7734 10.5063C27.0554 11.0668 26.1242 12.4936 25.4478 13.8592C24.8339 14.9752 24.4333 15.7191 23.8871 16.509C23.3356 17.2733 22.9766 17.3803 22.576 17.0695C22.3419 16.8606 20.7811 16.9064 17.5504 17.4007C19.7875 18.4351 19.8551 18.8275 19.6418 19.4288C19.6002 19.5511 19.5377 19.8008 19.5169 20.1524C20.1308 20.6467 20.6563 21.1053 21.2494 21.5384C23.8923 19.5715 25.4322 17.5842 25.4114 16.9676C25.3698 15.8516 25.812 15.6427 27.5653 16.6975C28.8763 17.4619 28.7046 17.9001 27.6693 18.3536C26.8265 18.746 23.7414 20.7129 21.8164 21.997C24.9224 24.4175 27.4976 25.8442 29.485 26.5271C30.9001 26.9806 33.6678 27.6838 35.187 27.9538C36.1599 28.1169 36.2639 28.5144 35.3535 28.6774C33.3089 29.0851 31.1134 29.3348 29.1884 29.3348ZM20.2973 9.88461C16.8532 10.5878 15.3341 10.7763 14.0855 10.756C14.3612 11.2961 14.5901 12.0401 14.8867 13.1968C15.8595 13.1968 17.0821 12.9675 19.4493 12.3254C20.5678 12.035 21.3482 12.1624 21.8581 12.5547C22.1338 12.784 21.9205 13.156 20.6771 13.3802C17.5087 13.9815 16.2393 14.0019 14.9959 13.7115C15.2092 14.537 15.3965 15.5306 15.6098 16.7536C19.9383 16.0911 21.291 15.9892 22.4355 16.193C23.45 14.3331 24.1888 12.2184 24.4229 10.6082C24.5842 9.34446 24.1628 9.07949 20.2973 9.88461Z" fill="#333333"/>
</svg>
