<svg width="71" height="71" viewBox="0 0 71 71" fill="none" xmlns="http://www.w3.org/2000/svg">
<circle cx="35.5" cy="35.5" r="35.5" fill="#00A7B9"/>
<path d="M24.9641 40.1272C21.5647 46.0787 17.9053 49.8232 11.9889 51.587C9.88052 52.2834 9.57402 51.4061 11.0879 50.6282C15.7226 48.2042 19.7629 43.5009 21.7598 39.2408C22.8929 36.7083 22.5864 36.5274 21.0446 36.9615C16.5957 38.065 15.8434 38.065 13.9951 37.07C13.0941 36.5907 13.2799 35.7857 14.2923 35.7857C17.4966 35.7133 21.6112 34.9807 22.3263 34.3204C23.6452 33.1446 24.1375 33.0361 26.0601 34.2481C28.252 35.5324 28.4749 36.1203 27.6483 36.8168C26.8495 37.5223 25.7907 38.5805 24.9641 40.1272ZM52.1127 51.0352C49.5864 51.0352 48.4904 50.7458 43.1405 44.939C39.704 41.1945 37.1034 38.5443 34.5771 36.4912C34.5028 37.4499 34.4656 38.5443 34.4656 39.8378C34.4656 42.1171 34.6885 45.129 34.8836 47.9871C35.1065 51.2161 34.5028 54.1557 32.3944 57.5023C31.7907 58.4972 30.509 58.7866 29.9053 57.5023C29.0786 55.8109 27.4161 53.0975 25.8743 51.8131C24.8526 50.9357 25.0477 50.4564 26.5523 50.8182C30.5461 51.7769 30.8526 51.4784 31.1498 49.1268C31.5678 46.1149 31.6421 44.2426 31.6793 40.5342C31.7536 35.7585 31.2985 31.7969 30.091 30.0332C29.413 30.1417 28.6978 30.2141 27.9827 30.3226C27.9084 30.6935 27.6855 30.802 27.3046 30.802C26.8867 30.802 25.9115 29.9246 25.1963 27.6454C22.8557 20.4819 21.8805 18.7905 20.1437 17.2529C19.2427 16.3755 19.4285 15.67 20.9703 15.86C22.0663 15.9685 22.8557 16.077 23.4966 16.4479C24.1003 16.4479 24.8155 16.4479 25.5307 16.4479C30.8898 11.0843 33.1839 7.04127 33.1096 5.57601C33.0353 4.02935 34.1313 3.70374 36.8062 5.57601C39.444 7.33975 39.3325 8.0362 37.7907 8.73265C36.2025 9.50146 32.8495 12.1878 28.0198 16.2579C32.1715 15.8871 37.2984 14.9012 41.896 13.4269C44.9888 12.432 45.4439 12.4682 47.7009 13.7977C51.2489 15.8509 51.2489 16.2579 49.5864 17.6147C48.3046 18.6096 46.6421 21.1421 45.4347 23.5661C44.3387 25.547 43.6235 26.8675 42.6483 28.2694C41.6638 29.6262 41.0229 29.8161 40.3077 29.2644C39.8898 28.8935 37.1034 28.9749 31.3356 29.8523C35.3294 31.6884 35.4502 32.3848 35.0693 33.4521C34.995 33.6692 34.8836 34.1124 34.8464 34.7365C35.9424 35.6138 36.8805 36.4279 37.9393 37.1967C42.6576 33.7054 45.4068 30.1779 45.3696 29.0835C45.2953 27.1027 46.0848 26.7318 49.2148 28.6041C51.5554 29.9608 51.2489 30.7387 49.4006 31.5437C47.896 32.2401 42.3882 35.7314 38.9517 38.0107C44.4966 42.307 49.0941 44.8395 52.6421 46.0515C55.1684 46.8565 60.1096 48.1047 62.8216 48.5841C64.5585 48.8735 64.7442 49.579 63.1189 49.8685C59.4687 50.592 55.5492 51.0352 52.1127 51.0352ZM36.2396 16.5112C30.091 17.7594 27.379 18.094 25.1499 18.0579C25.6421 19.0166 26.0508 20.3371 26.5802 22.3903C28.317 22.3903 30.4997 21.9833 34.7257 20.8437C36.7226 20.3281 38.1158 20.5542 39.026 21.2507C39.5183 21.6577 39.1375 22.318 36.9176 22.7159C31.2613 23.7832 28.9951 23.8194 26.7752 23.3038C27.156 24.7691 27.4904 26.5328 27.8712 28.7036C35.5988 27.5278 38.0136 27.3469 40.057 27.7087C41.8681 24.4073 43.187 20.6537 43.6049 17.7956C43.8929 15.5524 43.1405 15.0821 36.2396 16.5112Z" fill="black"/>
</svg>
