<svg width="429" height="34" viewBox="0 0 429 34" fill="none" xmlns="http://www.w3.org/2000/svg">
<path d="M7.15875 33.545H0V0.454102H7.15875V33.545Z" fill="#00A7B9"/>
<path d="M21.4047 28.0677H38.9197V33.545H12.4562V29.545L29.6372 5.97682H12.4801V0.454102H38.5379V4.36319L21.4047 28.0677Z" fill="#00A7B9"/>
<path d="M69.7501 0.454102V22.2495C69.7501 25.8707 68.557 28.7344 66.1707 30.8404C63.8004 32.9465 60.5551 33.9995 56.4348 33.9995C52.3782 33.9995 49.1567 32.9768 46.7705 30.9313C44.3842 28.8859 43.1673 26.0753 43.1195 22.4995V0.454102H50.2783V22.295C50.2783 24.4616 50.8192 26.045 51.9009 27.045C52.9986 28.0298 54.5099 28.5222 56.4348 28.5222C60.4596 28.5222 62.5038 26.5071 62.5675 22.4768V0.454102H69.7501Z" fill="#00A7B9"/>
<path d="M84.9744 0.454102L93.8989 24.4541L102.776 0.454102H112.178V33.545H104.995V24.4995L105.711 8.88591L96.3329 33.545H91.4172L82.0631 8.90863L82.779 24.4995V33.545H75.6203V0.454102H84.9744Z" fill="#00A7B9"/>
<path d="M126.042 33.545H118.883V0.454102H126.042V33.545Z" fill="#00A7B9"/>
<path d="M152.481 33.5454H145.323V0.454545H152.481V33.5454Z" fill="#333333"/>
<path d="M184.576 5.97726H173.934V33.5454H166.775V5.97726H156.276V0.454545H184.576V5.97726Z" fill="#333333"/>
<path d="M226.694 22.5227C226.423 26.0833 225.039 28.8863 222.542 30.9318C220.06 32.9772 216.783 34 212.71 34C208.256 34 204.748 32.5757 202.187 29.7272C199.642 26.8636 198.369 22.9394 198.369 17.9545V15.9318C198.369 12.75 198.958 9.94695 200.135 7.52272C201.312 5.09848 202.99 3.24242 205.17 1.95454C207.365 0.651514 209.91 0 212.806 0C216.815 0 220.044 1.02273 222.494 3.06818C224.944 5.11363 226.36 7.98484 226.741 11.6818H219.583C219.408 9.54544 218.779 7.99999 217.698 7.04544C216.632 6.07575 215.001 5.5909 212.806 5.5909C210.42 5.5909 208.63 6.40908 207.437 8.04544C206.26 9.66665 205.655 12.1894 205.623 15.6136V18.1136C205.623 21.6894 206.188 24.303 207.317 25.9545C208.463 27.606 210.26 28.4318 212.71 28.4318C214.922 28.4318 216.568 27.9545 217.65 27C218.748 26.0303 219.376 24.5378 219.535 22.5227H226.694Z" fill="#333333"/>
<path d="M259.934 17.75C259.934 21.0075 259.33 23.8636 258.121 26.3181C256.912 28.7727 255.178 30.6666 252.919 32C250.676 33.3333 248.098 34 245.187 34C242.308 34 239.739 33.3409 237.48 32.0227C235.221 30.7045 233.471 28.8257 232.23 26.3863C230.989 23.9318 230.361 21.1136 230.345 17.9318V16.2954C230.345 13.0379 230.957 10.1742 232.182 7.70453C233.423 5.21969 235.165 3.31818 237.408 2C239.667 0.666666 242.244 0 245.139 0C248.035 0 250.604 0.666666 252.847 2C255.106 3.31818 256.848 5.21969 258.073 7.70453C259.314 10.1742 259.934 13.0303 259.934 16.2727V17.75ZM252.68 16.25C252.68 12.7803 252.028 10.1439 250.723 8.3409C249.419 6.53787 247.558 5.63636 245.139 5.63636C242.737 5.63636 240.884 6.53029 239.58 8.31817C238.275 10.0909 237.615 12.697 237.599 16.1363V17.75C237.599 21.1288 238.251 23.75 239.556 25.6136C240.86 27.4772 242.737 28.409 245.187 28.409C247.589 28.409 249.435 27.5151 250.723 25.7272C252.012 23.9242 252.664 21.303 252.68 17.8636V16.25Z" fill="#333333"/>
<path d="M274.49 0.454545L283.415 24.4545L292.292 0.454545H301.694V33.5454H294.511V24.5L295.227 8.88635L285.849 33.5454H280.933L271.579 8.90908L272.295 24.5V33.5454H265.136V0.454545H274.49Z" fill="#333333"/>
<path d="M315.104 21.8863V33.5454H307.946V0.454545H321.499C324.108 0.454545 326.399 0.90909 328.372 1.81818C330.36 2.72727 331.888 4.02272 332.953 5.70454C334.019 7.3712 334.552 9.27271 334.552 11.4091C334.552 14.6515 333.383 17.2121 331.044 19.0909C328.722 20.9545 325.5 21.8863 321.38 21.8863H315.104ZM315.104 16.3636H321.499C323.393 16.3636 324.832 15.9394 325.819 15.0909C326.821 14.2424 327.322 13.0303 327.322 11.4545C327.322 9.83332 326.821 8.52271 325.819 7.52272C324.816 6.52272 323.432 6.00757 321.667 5.97726H315.104V16.3636Z" fill="#333333"/>
<path d="M354.859 26.7272H342.308L339.921 33.5454H332.309L345.243 0.454545H351.876L364.881 33.5454H357.269L354.859 26.7272ZM344.24 21.2045H352.926L348.56 8.81817L344.24 21.2045Z" fill="#333333"/>
<path d="M396.38 33.5454H389.221L375.286 11.7727V33.5454H368.127V0.454545H375.286L389.245 22.2727V0.454545H396.38V33.5454Z" fill="#333333"/>
<path d="M413.943 15.3636L421.173 0.454545H429L417.594 21.5454V33.5454H410.316V21.5454L398.909 0.454545H406.76L413.943 15.3636Z" fill="#333333"/>
</svg>
